<svg width="375" height="460" viewBox="0 0 375 460" fill="none" xmlns="http://www.w3.org/2000/svg">
    <path
        d="M109.439 102.583C110.319 100.273 113.62 98.4919 115.16 97.8902C122.202 95.0022 133.536 93.5581 138.267 94.2802C142.998 95.0022 137.827 96.4461 133.315 97.8902C128.804 99.3342 132.105 100.056 136.176 99.3342C140.247 98.6122 148.72 97.8902 155.982 97.5292C163.244 97.1682 155.872 96.4461 148.72 96.4461C141.568 96.4461 141.678 95.0022 144.209 94.2802C146.739 93.5581 152.461 90.6701 159.173 91.0311C165.885 91.3921 181.729 92.1141 188.551 94.6412C195.373 97.1682 209.457 104.027 212.868 106.193C216.279 108.359 215.838 114.497 209.787 110.887C203.735 107.276 191.192 100.778 163.684 99.6953C136.176 98.6123 115.27 104.749 113.07 107.276C110.869 109.804 109.329 109.804 110.209 107.637C111.089 105.471 111.309 105.11 110.429 105.832C109.549 106.554 108.339 105.471 109.439 102.583Z"
        fill="#FF733B" />
    <path opacity="0.4"
        d="M343 1.03202C354.784 0.849381 375.307 1.36076 363.124 4.86739C347.895 9.25067 337.017 20.209 350.07 18.0173C360.513 16.264 375.089 14.3646 381.072 13.634C387.055 12.3556 395.43 12.0999 381.072 21.3048C363.124 32.8109 352.79 42.6733 359.86 43.2212C366.931 43.7691 370.738 39.9337 368.019 49.2482C365.299 58.5627 362.036 65.1376 377.265 75"
        stroke="#FF553E" stroke-width="2" />
    <path opacity="0.3"
        d="M335.134 353.049C334.879 352.56 334.275 352.37 333.785 352.625C333.295 352.88 333.105 353.484 333.361 353.974L335.134 353.049ZM315.958 390.369L315.759 389.389L315.958 390.369ZM276.379 417.519C275.948 417.865 275.878 418.494 276.224 418.925L281.852 425.948C282.198 426.379 282.827 426.448 283.258 426.103C283.689 425.757 283.758 425.128 283.413 424.697L278.41 418.455L284.652 413.452C285.083 413.106 285.153 412.477 284.807 412.046C284.462 411.615 283.833 411.546 283.402 411.891L276.379 417.519ZM333.361 353.974C335.9 358.845 338.013 366.424 336.263 373.379C335.393 376.833 333.57 380.148 330.343 382.936C327.108 385.731 322.418 388.038 315.759 389.389L316.157 391.349C323.067 389.947 328.097 387.52 331.65 384.45C335.211 381.373 337.24 377.69 338.202 373.867C340.115 366.268 337.805 358.171 335.134 353.049L333.361 353.974ZM315.759 389.389C307.452 391.074 301.657 389.873 297.929 387.455C294.206 385.041 292.42 381.338 292.245 377.729C292.069 374.098 293.522 370.635 296.192 368.665C298.819 366.726 302.825 366.09 308.079 368.494L308.911 366.675C303.152 364.04 298.343 364.592 295.005 367.055C291.709 369.487 290.045 373.641 290.248 377.826C290.452 382.033 292.542 386.346 296.84 389.133C301.133 391.918 307.505 393.104 316.157 391.349L315.759 389.389ZM308.079 368.494C313.248 370.859 316.161 375.241 317.081 380.506C318.005 385.8 316.905 391.988 313.979 397.8C308.135 409.408 295.126 419.291 277.114 417.306L276.894 419.294C295.848 421.383 309.599 410.948 315.765 398.699C318.845 392.583 320.063 385.959 319.051 380.162C318.034 374.336 314.756 369.35 308.911 366.675L308.079 368.494Z"
        fill="#FF553E" />
    <path opacity="0.1"
        d="M-9 441.14C0.447619 427.298 1.8254 404.612 1.33333 395C14.3238 407.688 35.2857 418.55 44.1429 422.395C32.3333 432.777 31.3492 449.791 32.3333 457C15.8 444.312 -2.11111 441.14 -9 441.14Z"
        stroke="#FF553E" stroke-width="2" />
</svg>
    