<svg width="1672" height="755" viewBox="0 0 1672 755" fill="none" xmlns="http://www.w3.org/2000/svg">
    <path opacity="0.3"
        d="M1 176.922L56.3604 219.948C57.5543 220.876 59.3065 220.195 59.5595 218.704L67.9934 169.025C68.2699 167.396 70.2904 166.786 71.4222 167.99L94.6641 192.709C95.8384 193.958 97.9371 193.247 98.1109 191.541L106.556 108.632C106.765 106.582 109.562 106.149 110.381 108.04L145.785 189.822C146.572 191.64 149.238 191.331 149.589 189.382L154.571 161.663C154.915 159.753 157.504 159.402 158.343 161.152L175 195.902"
        stroke="#FF553E" stroke-width="3" />
    <path opacity="0.4"
        d="M1341 256.098C1326.66 234.938 1296.82 183.294 1292.12 146M1325.36 268C1315.58 262.049 1287.63 251.337 1254 256.098"
        stroke="#FF553E" stroke-width="4" />
    <path opacity="0.4"
        d="M1612 2.05798C1633.52 1.72726 1670.99 2.65328 1648.75 9.00311C1620.94 16.9404 1601.08 36.7838 1624.91 32.8152C1643.98 29.6402 1670.6 26.2007 1681.52 24.8779C1692.45 22.5628 1707.74 22.0998 1681.52 38.7681C1648.75 59.6035 1629.88 77.4624 1642.79 78.4546C1655.7 79.4468 1662.65 72.5016 1657.69 89.3684C1652.72 106.235 1646.76 118.141 1674.57 136"
        stroke="#FF553E" stroke-width="3" />
    <path opacity="0.5"
        d="M388 735.14C397.448 721.298 398.825 698.612 398.333 689C411.324 701.688 432.286 712.55 441.143 716.395C429.333 726.777 428.349 743.791 429.333 751C412.8 738.312 394.889 735.14 388 735.14Z"
        stroke="#D26D60" stroke-width="3" />
    <path opacity="0.5"
        d="M1033.04 600.019C1032.66 599.284 1031.75 598.999 1031.02 599.382C1030.29 599.765 1030 600.671 1030.38 601.406L1033.04 600.019ZM998.898 666.842L998.6 665.372L998.898 666.842ZM928.068 715.785C927.422 716.303 927.318 717.247 927.836 717.894L936.278 728.428C936.796 729.074 937.74 729.178 938.387 728.66C939.033 728.142 939.137 727.198 938.619 726.552L931.115 717.188L940.479 709.683C941.125 709.165 941.229 708.221 940.711 707.575C940.193 706.928 939.249 706.824 938.603 707.342L928.068 715.785ZM1030.38 601.406C1034.96 610.181 1038.78 623.856 1035.61 636.43C1034.04 642.682 1030.74 648.683 1024.9 653.729C1019.05 658.784 1010.58 662.941 998.6 665.372L999.197 668.312C1011.56 665.805 1020.53 661.467 1026.86 655.999C1033.2 650.521 1036.81 643.968 1038.52 637.163C1041.93 623.623 1037.82 609.171 1033.04 600.019L1030.38 601.406ZM998.6 665.372C983.644 668.406 973.162 666.253 966.389 661.861C959.626 657.475 956.377 650.74 956.058 644.177C955.738 637.581 958.376 631.267 963.259 627.663C968.077 624.108 975.382 622.978 984.884 627.326L986.132 624.598C975.872 619.904 967.363 620.906 961.478 625.249C955.657 629.544 952.702 636.895 953.062 644.323C953.424 651.784 957.13 659.432 964.757 664.378C972.377 669.32 983.723 671.451 999.197 668.312L998.6 665.372ZM984.884 627.326C994.257 631.615 999.538 639.566 1001.2 649.095C1002.87 658.667 1000.88 669.835 995.61 680.307C985.077 701.228 961.627 719.042 929.171 715.465L928.842 718.446C962.711 722.18 987.272 703.539 998.289 681.656C1003.79 670.727 1005.96 658.906 1004.16 648.579C1002.35 638.209 996.519 629.351 986.132 624.598L984.884 627.326Z"
        fill="#D26D60" />
    <path
        d="M320.729 386.306C322.19 382.455 327.671 379.487 330.229 378.484C341.921 373.671 360.738 371.264 368.594 372.467C376.45 373.671 367.863 376.077 360.373 378.484C352.882 380.891 358.363 382.094 365.123 380.891C371.883 379.687 385.95 378.484 398.008 377.882C410.065 377.281 397.825 376.077 385.95 376.077C374.075 376.077 374.258 373.671 378.459 372.467C382.661 371.264 392.161 366.45 403.306 367.052C414.45 367.654 440.758 368.857 452.084 373.069C463.411 377.281 486.796 388.713 492.46 392.323C498.123 395.933 497.392 406.161 487.344 400.144C477.296 394.128 456.469 383.297 410.796 381.492C365.123 379.687 330.411 389.916 326.757 394.128C323.104 398.339 320.546 398.339 322.007 394.729C323.469 391.119 323.834 390.518 322.373 391.721C320.911 392.924 318.902 391.119 320.729 386.306Z"
        fill="#FF733B" />
</svg>
    